/* XPM */
static char *result[] = {
/* columns rows colors chars-per-pixel */
"80 80 205 2 ",
"   c #0C0B06",
".  c #12110B",
"X  c #1F1E19",
"o  c #1A1913",
"O  c #100F0A",
"+  c #201E19",
"@  c #23221C",
"#  c #29261F",
"$  c #2D2B25",
"%  c #2A2925",
"&  c #312F27",
"*  c #34322C",
"=  c #3E3A2E",
"-  c #3D3B31",
";  c #534C3D",
":  c #40403D",
">  c #665032",
",  c #4D4C4B",
"<  c #5B5544",
"1  c #5D5848",
"2  c #595853",
"3  c #574F42",
"4  c #665D4C",
"5  c #7E6848",
"6  c #736B56",
"7  c #7B735D",
"8  c #61605E",
"9  c #7F7860",
"0  c #8D5511",
"q  c #925612",
"w  c #945A12",
"e  c #9A5C13",
"r  c #A35E13",
"t  c #9F6114",
"y  c #A26114",
"u  c #AB6314",
"i  c #AD6915",
"p  c #B36414",
"a  c #B96615",
"s  c #B46D16",
"d  c #BC6B16",
"f  c #BD7217",
"g  c #BF7418",
"h  c #CC6001",
"j  c #CF6609",
"k  c #CF680B",
"l  c #D16B0D",
"z  c #C76C16",
"x  c #CB6E17",
"c  c #C76E19",
"v  c #C86E19",
"b  c #D26E12",
"n  c #CD7117",
"m  c #C47618",
"M  c #CB731D",
"N  c #CD7C19",
"B  c #C67818",
"V  c #D27216",
"C  c #D4751A",
"Z  c #D47B19",
"A  c #DA7C1C",
"S  c #DA513D",
"D  c #CC7621",
"F  c #CE7B2A",
"G  c #C87726",
"H  c #D37B25",
"J  c #DC7E20",
"K  c #D37E2A",
"L  c #C47F36",
"P  c #937D5E",
"I  c #A47E50",
"U  c #807861",
"Y  c #847A63",
"T  c #D85C49",
"R  c #D76853",
"E  c #DA7D6E",
"W  c #E07866",
"Q  c #D5811A",
"!  c #DC841B",
"~  c #E2841A",
"^  c #E48A1C",
"/  c #EA8C1C",
"(  c #EE911D",
")  c #F5941D",
"_  c #DE8222",
"`  c #D4802B",
"'  c #C1843D",
"]  c #CE8537",
"[  c #D38434",
"{  c #D48A3C",
"}  c #D98A39",
"|  c #E18523",
" . c #E58925",
".. c #E98E27",
"X. c #E58B29",
"o. c #E98F2B",
"O. c #EC932B",
"+. c #F49622",
"@. c #F59825",
"#. c #F1972B",
"$. c #F39A2B",
"%. c #F49D33",
"&. c #978669",
"*. c #978C71",
"=. c #B59B77",
"-. c #B6A07B",
";. c #C58A44",
":. c #CB8F49",
">. c #C38A47",
",. c #D48E41",
"<. c #CD914B",
"1. c #D69244",
"2. c #DA9445",
"3. c #D3944D",
"4. c #D99649",
"5. c #DC9849",
"6. c #DC9847",
"7. c #C89455",
"8. c #D39751",
"9. c #D69954",
"0. c #DC9C54",
"q. c #DB9E58",
"w. c #D1995B",
"e. c #E3984B",
"r. c #DEA25C",
"t. c #E0A45E",
"y. c #EAA65A",
"u. c #C79C66",
"i. c #DA9C61",
"p. c #DBA364",
"a. c #C5A67C",
"s. c #DAA772",
"d. c #E2A661",
"f. c #E5AA64",
"g. c #EAAD66",
"h. c #EAAE68",
"j. c #E2A96D",
"k. c #EEB26C",
"l. c #F1B56E",
"z. c #E5B47C",
"x. c #EDB97B",
"c. c #E6B175",
"v. c #F3B670",
"b. c #F5B973",
"n. c #F9BD77",
"m. c #FABE78",
"M. c #F6BF7F",
"N. c #949491",
"B. c #B3AA9A",
"V. c #B3B3B2",
"C. c #A8A8A5",
"Z. c #C7AB83",
"A. c #DCB788",
"S. c #D0B085",
"D. c #E6BC87",
"F. c #E3BD96",
"G. c #D9BDB7",
"H. c #FCB7AC",
"J. c #F3B9AE",
"K. c #DEC09A",
"L. c #EBC28C",
"P. c #F7C387",
"I. c #EBC694",
"U. c #EBC69A",
"Y. c #E4C394",
"T. c #F4CB9B",
"R. c #FACF9C",
"E. c #FBCA92",
"W. c #FCD09E",
"Q. c #C4C3BD",
"!. c #ECCDA7",
"~. c #F3CFA5",
"^. c #F8D3A7",
"/. c #F7D4AA",
"(. c #EFD8BE",
"). c #E9D3BA",
"_. c #FADAB5",
"`. c #F3DABC",
"'. c #F6D9B7",
"]. c #FCC8BF",
"[. c #FDE0BE",
"{. c #DBD8D2",
"}. c #E8D9C7",
"|. c #F3DFC7",
" X c #FDE1C1",
".X c #F5E1CA",
"XX c #FAE5CB",
"oX c #F6E0C7",
"OX c #F6E6D3",
"+X c #F7EAD9",
"@X c #F9ECDB",
"#X c #F9E9D5",
"$X c #ECE2D5",
"%X c #ECECEC",
"&X c #E6E6E5",
"*X c #F0EFEE",
"=X c #F7EBE3",
"-X c #F1F0EF",
";X c #FBF4ED",
":X c #FCF1E2",
">X c #F5F3F2",
",X c #FBF6F1",
"<X c #FEF9F4",
"1X c #FEFEFD",
"2X c None",
/* pixels */
"2X2X2X2X2X2X2X2X2X2X2X2X2X2X2X2X2X2X2X2X2X2X2X2X2X2X2X2X2X2X2X2X2X2X2X2X2X2X2X2X2X2X2X2X2X2X2X2X2X2X2X2X2X2X2X2X2X2X2X2X2X2X2X2X2X2X2X2X2X2X2X2X2X2X2X2X2X2X2X2X",
"2X2X2X2X2X2X2X2X2X2X2X2X2X2X2X2X2X2X2X2X2X2X2X2X2X2X2X2X2X2X2X2X2X2X2X2X2X2X2X2X2X2X2X2X2X2X2X2X2X2X2X2X2X2X2X2X2X2X2X2X2X2X2X2X2X2X2X2X2X2X2X2X2X2X2X2X2X2X2X2X",
"2X2X2X2X2X2X2X2X2X2X2X2X2X2X2X2X2X2X2X2X2X2X2X2X2X2X2X2X2X2X2X2X2X2X2X2X2X2X2X2X2X2X2X2X2X2X2X2X2X2X2X2X2X2X2X2X2X2X2X2X2X2X2X2X2X2X2X2X2X2X2X2X2X2X2X2X2X2X2X2X",
"2X2X2X2X2X2X2X2X2X2X2X2X2X2X2X2X2X2X2X2X2X2X2X2X2X2X2X2X2X2X2X2X2X2X2X2X2X2X2X2X2X2X2X2X2X2X2X2X2X2X2X2X2X2X2X2X2X2X2X2X2X2X2X2X2X2X2X2X2X2X2X2X2X2X2X2X2X2X2X2X",
"2X2X2X2X2X2X2X2X2X2X2X2X2X2X2X2X2X2X2X2X2X2X2X2X2X2X2X2X2X2X2X2Xh h h h h h h h h h h h h h h h 2X2X2X2X2X2X2X2X2X2X2X2X2X2X2X2X2X2X2X2X2X2X2X2X2X2X2X2X2X2X2X2X",
"2X2X2X2X2X2X2X2X2X2X2X2X2X2X2X2X2X2X2X2X2X2X2X2X2X2X2X2Xh h h h h h h h h b V C C C b j h h h h h h h h 2X2X2X2X2X2X2X2X2X2X2X2X2X2X2X2X2X2X2X2X2X2X2X2X2X2X2X2X",
"2X2X2X2X2X2X2X2X2X2X2X2X2X2X2X2X2X2X2X2X2X2X2X2X2X2Xh h h h h b A  .#.$.%.@.) ) ) ) +.$.$.#. .J b h h h h h 2X2X2X2X2X2X2X2X2X2X2X2X2X2X2X2X2X2X2X2X2X2X2X2X2X2X",
"2X2X2X2X2X2X2X2X2X2X2X2X2X2X2X2X2X2X2X2X2X2X2Xh h h h h V  .#.+.) ) ) ) ) ) ) ) ) ) ) ) ) ) ) ) @.$. .C h h h h h 2X2X2X2X2X2X2X2X2X2X2X2X2X2X2X2X2X2X2X2X2X2X2X",
"2X2X2X2X2X2X2X2X2X2X2X2X2X2X2X2X2X2X2X2X2X2Xh h h j _ #.) ) ) ) ) ) ) ) ) ) ) ) ) ) ) ) ) ) ) ) ) ) ) +.#.| j h h h 2X2X2X2X2X2X2X2X2X2X2X2X2X2X2X2X2X2X2X2X2X2X",
"2X2X2X2X2X2X2X2X2X2X2X2X2X2X2X2X2X2X2X2Xh h h h | #.) ) ) ) ) ) ) ) ) ) ) ) ) ) ) ) ) ) ) ) ) ) ) ) ) ) ) ) @.| j h h h 2X2X2X2X2X2X2X2X2X2X2X2X2X2X2X2X2X2X2X2X",
"2X2X2X2X2X2X2X2X2X2X2X2X2X2X2X2X2X2X2Xh h h A #.) ) ) ) ) ) ) ) ) ) ) ) ) ) ) ) ) ) ) ) ) ) ) ) ) ) ) ) ) ) ) ) $.| h h h 2X2X2X2X2X2X2X2X2X2X2X2X2X2X2X2X2X2X2X",
"2X2X2X2X2X2X2X2X2X2X2X2X2X2X2X2X2Xh h h l O.+.) ) ) ) ) ) ) ) ) ) ) ) ) ) ) ) ) ) ) ) ) ) ) ) ) ) ) ) ) ) ) ) ) ) ) #.b h h h 2X2X2X2X2X2X2X2X2X2X2X2X2X2X2X2X2X",
"2X2X2X2X2X2X2X2X2X2X2X2X2X2X2X2Xh h h A @.) ) ) ) ) ) ) ) ) ) ) ) / A ~ ~ / ( ) ) / ~ J ~ / ) ) ) ) ) ) ) ) ) ) ) ) ) +.| h h h 2X2X2X2X2X2X2X2X2X2X2X2X2X2X2X2X",
"2X2X2X2X2X2X2X2X2X2X2X2X2X2X2Xh h h X.+.) ) ) ) ) ) ) ) ) / ! C x z z z z z z z z x z x z x z V A / ) ) ) ) ) ) ) ) ) ) ) O.j h h 2X2X2X2X2X2X2X2X2X2X2X2X2X2X2X",
"2X2X2X2X2X2X2X2X2X2X2X2X2X2Xh h j o.) ) ) ) ) ) ( A Z Z n z z x z K e.y.e.} H x C [ 2.e.e.} D z z x b C A A / ) ) ) ) ) ) ) #.l h h 2X2X2X2X2X2X2X2X2X2X2X2X2X2X",
"2X2X2X2X2X2X2X2X2X2X2X2X2Xh h h O.) ) ) ) ) ^ V x z z x z M ] ,.t.m.m.m.b.n.n.l.v.n.n.n.n.n.v.4.] G c x z z z C ^ ) ) ) ) ) ) #.l h h 2X2X2X2X2X2X2X2X2X2X2X2X2X",
"2X2X2X2X2X2X2X2X2X2X2X2Xh h h O.+.) ) ( ! V c z n } y.g.t.9.9.t.m.m.m.m.m.m.n.k.b.m.m.m.m.m.m.b.q.8.9.g.g.e.D z z x ! ) ) ) ) ) #.l h h 2X2X2X2X2X2X2X2X2X2X2X2X",
"2X2X2X2X2X2X2X2X2X2X2Xh h h O.) ) ) / N z z D 2.k.b.b.b.t.9.t.m.m.m.m.m.m.m.n.k.b.m.m.m.m.m.m.m.v.9.9.b.b.b.b.y.` x x C ) ) ) ) ) #.j h h 2X2X2X2X2X2X2X2X2X2X2X",
"2X2X2X2X2X2X2X2X2X2X2Xh h X.) ) ) / N d z } t.d.t.f.b.b.t.9.l.m.m.m.m.m.m.m.n.k.l.m.m.m.m.m.m.m.m.t.9.l.b.k.d.t.d.0.M z ^ ) ) ) ) ) O.h h h 2X2X2X2X2X2X2X2X2X2X",
"2X2X2X2X2X2X2X2X2X2Xh h A +.) ) ) ! d c D t.t.t.t.k.k.b.r.9.b.m.m.m.m.m.m.P.R.^.[.[. X[.[._./.W.P.t.8.k.l.k.h.t.t.t.4.x b ) ) ) ) ) +. .h h 2X2X2X2X2X2X2X2X2X2X",
"2X2X2X2X2X2X2X2X2Xh h b #.) ) ) / m z v 0.t.t.t.r.f.b.g.9.0.m.m.m.m.E.[.:X<X<X<X<X<X<X<X<X<X<X<X<X:X`.U.M.k.d.p.t.t.t.F z A ) ) ) ) ) @.V h h 2X2X2X2X2X2X2X2X2X",
"2X2X2X2X2X2X2X2X2Xh h O.) ) ) ( Z d z [ t.t.t.t.f.b.l.8.9.r.m.m.W.@X<X<X<X<X<X<X<X<X<X<X<X<X<X<X<X<X,X,X,XXXP.d.t.t.t.0.v v ( ) ) ) ) ) #.h h 2X2X2X2X2X2X2X2X2X",
"2X2X2X2X2X2X2X2Xh h ! ) ) ) ) ^ s z M q.t.t.t.g.b.b.9.9.9.r.P.#X<X<X<X<X<X<X<X<X<X<X<X<X<X<X<X<X<X<X;X,X,X<X<X`.t.t.t.t.{ x C ) ) ) ) ) ) | h h 2X2X2X2X2X2X2X2X",
"2X2X2X2X2X2X2Xh h j O.) ) ) / m z z ,.t.t.t.g.b.b.f.<.9.9.R.,X<X<X<X<X<X<X<X<X<X<X<X<X<X<X<X<X<X<X<X<X<X,X<X<X/.l.t.t.r.r.M x ~ ) ) ) ) ) $.j h h 2X2X2X2X2X2X2X",
"2X2X2X2X2X2X2Xh h _ ) ) ) ) Q d z F r.t.t.t.v.b.l.;.9.9.~.<X<X<X<X<X<X<X<X<X<X<X<X<X<X<X<X<X<X<X<X<X<X,X<X;X,XD.b.g.t.t.t.4.z x ) ) ) ) ) ) | h h 2X2X2X2X2X2X2X",
"2X2X2X2X2X2X2Xh j #.) ) ) ^ f z c 0.t.t.t.f.b.b.8.<.9.U.<X<X<X<X<X<X<X;X<X<X<X<X<X<X<X<X<X<X<X,X<X<X<X<X,X;X|.k.b.l.t.t.t.r.F x A ) ) ) ) ) @.j h h 2X2X2X2X2X2X",
"2X2X2X2X2X2Xh h A ) ) ) ) N d z { t.t.t.t.l.b.l.;.8.A.<X<X<X<X,X<X<X<X<X<X<X<X<X<X<X<X<X<X<X<X,X,X<X<X<X<X,XA.q.b.b.f.t.t.t.q.v z / ) ) ) ) ) | h h 2X2X2X2X2X2X",
"2X2X2X2X2X2Xh h O.) ) ) ! d z D q.t.t.t.f.v.b.k.' p.:X<X<X<X,X<X;X<X<X<X;X<X<X@X_.^.T.Y.I.I.U.(.=X,X<X<X<X;X7.9.v.v.k.t.t.t.t.{ x x / ) ) ) ) #.h h 2X2X2X2X2X2X",
"2X2X2X2X2Xh h C ) ) ( ! c z M 4.t.t.t.t.t.k.b.k.' }.,X<X,X,X%X>X-X,X,X<X;X_.M.b.b.b.h.r.<.:.>.; 2 4 '.:X<X(.:.8.b.b.d.t.t.t.t.t.G z z ~ ) ) ) +.C h h 2X2X2X2X2X",
"2X2X2X2X2Xh h | ) / Z z z G ' r.t.t.t.t.d.b.b.k.u.;X<X<X,X%X%X%X-X,X,X#Xb.n.b.b.b.b.b.r.3.' 7 o # O > p.U.z.:.<.b.b.k.t.t.t.t.t.3.L x z ~ ) ) )  .h h 2X2X2X2X2X",
"2X2X2X2X2Xh h O.) ! s z F 3.;.t.t.t.t.t.h.k.b.f.}.,X<X<X,X*X%X%X-X,XOXp.b.b.b.b.b.b.b.g.r.>.4 o . @ 5 r.r.q.<.<.b.b.h.d.t.t.t.t.9.;.2.x V ) ) ) $.h h 2X2X2X2X2X",
"2X2X2X2X2Xh V ) ) m u z { 8.<.t.t.t.t.t.t.k.b.x.;X<X<X;X<X,X,X,X,X;Xc.f.b.b.b.b.b.b.b.k.r.g.g.p.I 7.r.r.d.r.<.:.b.b.d.t.t.r.t.t.q.;.q.v n ) ) ) @.b h h 2X2X2X2X",
"2X2X2X2Xh h C ) ( f u z 4.8.8.r.t.t.t.t.r.k.b._.,X,X<X,X,X<X,X<X,X~.r.l.b.b.b.b.b.b.b.b.f.t.g.g.f.r.f.f.h.f.:.<.b.b.f.r.r.t.t.t.t.;.t.D n +.) ) ) A h h 2X2X2X2X",
"2X2X2X2Xh h | ) ^ p a z q.9.q.t.t.t.t.t.r.k.b.@X;X,X<X<X<X,X<X<X;Xf.f.b.b.b.b.b.b.b.b.b.v.r.g.g.r.r.r.f.h.t.:.8.b.v.t.t.t.t.t.t.t.<.t.K z ) ) ) )  .h h 2X2X2X2X",
"2X2X2X2Xh h ..) ! u z c t.0.q.t.t.t.t.t.t.d.M.<X;X<X,X<X<X;X<X,X`.r.v.b.b.b.b.b.b.b.b.b.b.g.f.g.t.t.t.h.h.t.;.9.b.k.r.t.t.t.t.t.t.9.t.{ z / ) ) ) #.h h 2X2X2X2X",
"2X2X2X2Xh h #.) Q y z F r.q.t.t.r.t.t.t.t.d.R.<X;X<X<X<X<X<X<X<XL.k.b.b.b.b.b.b.b.b.b.b.b.b.t.t.t.r.f.h.h.f.;.r.b.h.r.t.t.t.t.t.t.q.t.4.z A ) ) ) $.h h 2X2X2X2X",
"2X2X2X2Xh j #.( B u M [ t.t.t.t.I.U.U.U.I.U.XX<X<X<X1X<X1X<X<X<X~.^.^.^././.^.I.m.b.b.b.b.b.k.r.t.t.f.g.g.t.' t.n.f.t.t.t.t.t.t.t.r.t.0.z A ) ) ) %.j h 2X2X2X2X",
"2X2X2X2Xh b ) ( m w c M r.t.t.t.@X;X;X<X,X,X<X1X1X1X1X1X1X1X1X1X<X<X<X<X<X<X<XB.&.B.L.L.n.b.b.g.t.t.f.g.h.r.;.t.v.t.t.t.t.t.t.t.t.t.t.{ z ! ) ) ) ) b h 2X2X2X2X",
"2X2X2X2Xh V / ) N w u z { d.t.t.@X;X<X,X,X,X1X1X1X1X1X1X1X1X1X1X<X<X<X<X-X*X%X8 * * - a.L.v.b.b.h.r.f.f.h.r.' f.v.t.t.t.t.t.t.t.t.t.r.n z / ) ) ) ) C h h 2X2X2X",
"2X2X2X2Xh V ) ) ^ u 0 z n q.t.t.@X,X,X,X,X;X1X1X1X1X1X1X1X1X1X1X<X<X<X>X%X%X%X, & * * ; I.x.v./.XXXX|.|.XX|.).XXI.r.t.t.t.t.t.t.t.r.] z n ) ) ) ) ) C h h 2X2X2X",
"2X2X2X2Xh V ) ) ( B w u x [ t.t.@X,X,X;X<X;X<X1X1X1X1X1X1X1X1X1X;X<X<X*X%X%X&X, X o . X =.L.h.XX<X<X<X<X<X,X;X,XR.t.f.r.r.9.r.r.t.5.c n ^ ) ) ) ) ) C h h 2X2X2X",
"2X2X2X2Xh V ) ) ) ^ i 0 z c 0.t.@X;X,X,X;X<X1X1X1X1X1X1X1X1X1X1X<X<X,X%X&X%X&X, X     . &.I.x.XX<X<X<X<X<X,X,X,XR.f.r.r.r.r.r.r.t.] z C ) ) ) ) ) ) C h h 2X2X2X",
"2X2X2X2Xh l +.) ) ) N w y z F p.@X;X,X,X,X,X1X1X1X1X1X1X1X1X1X1X<X<X<X-X&X&X%X, X O   O a.I.L.XX<X<X<X<X,X,X,X,X~.g.r.r.r.r.;.r.5.c n ^ ) ) ) ) ) +.b h 2X2X2X2X",
"2X2X2X2Xh h $.) ) ) ^ s 0 z c 5.+X,X,X,X,X<X<X1X1X1X1X1X1X1X1X1X<X<X<X>X%X%X%X, X o . # Y.I.I.+X<X<X<X<X,X,X,X;XL.h.r.f.r.r.<.8.F z Z ) ) ) ) ) ) $.j h 2X2X2X2X",
"2X2X2X2Xh h #.) ) ) ) Q e r z G ).|.|.|.oXXX@X<X1X<X1X1X1X1X1X1X:X+X@X$XQ.V.V.: X X @ 1 Y.I.I.+X<X<X<X<X<X,X,X>Xs.k.t.t.r.r.r.L z n / ) ) ) ) ) ) %.h h 2X2X2X2X",
"2X2X2X2Xh h ..) ) ) ) ^ d 0 a z L q.t.t.t.g.p.;X,X,X,X<X,X<X>X<X`.I.I.Z.7 * o o X # 1 7 Y.I.I.+X<X,X<X<X,X,X,X,Xi.y.t.t.r.f.:.g x ! ) ) ) ) ) ) ) @.h h 2X2X2X2X",
"2X2X2X2Xh h | ) ) ) ) ) Q t e z M t.t.t.t.{ F ;X,X,X,X<X<X>X>X1X+XI.I.S.7 6 & X = 6 U &.I.I.I.+X<X%X,X<X,X,X,X,Xi.F d.t.r.r.3.m V ( ) ) ) ) ) ) )  .h h 2X2X2X2X",
"2X2X2X2Xh h A ) ) ) ) ) / f 0 x M 0.t.t.2.z z OX,X>X,X<X<X>X>X<X<X!.I.S.9 9 7 7 7 9 U &.I.I.I.+X>X*X<X<X,X,X;X>Xq.z ` t.t.r.{ z V ) ) ) ) ) ) ) ) J h h 2X2X2X2X",
"2X2X2X2X2Xh l #.) ) ) ) ) N w a z 0.r.5.c z z F.,X,X,X,X<X>X>X1X<X#XF.a.U Y U Y 9 9 9 &.I.I.I.OX-X*X1X>X<X>X,X,Xq.c x { r.r.` z n ) ) ) ) ) ) ) +.V h h 2X2X2X2X",
"2X2X2X2X2Xh h O.) ) ) ) ) ! t p n [ F M z a v w.,X,X>X<X<X>X*X>X<X<X/.&.Y 6 - % & 1 7 7 A.L.Y.{.*X>X<X<X,X,X,X,Xi.d d z F [ F z A ) ) ) ) ) ) ) $.h h 2X2X2X2X2X",
"2X2X2X2X2Xh h | ) ) ) ) ) ^ i e z z c d r u V ] $X<X,X<X>X<X-X*X<X<X;XN.3 # + + @ @ = 7 -.Y.3 V.%X<X1X<X>X,X,X<Xi.z q z z x c c ~ ) ) ) ) ) ) ) ..h h 2X2X2X2X2X",
"2X2X2X2X2Xh h V ) ) ) ) ) / B e t y i f t a V ,.D.<X<X,X1X<X>X*X-X>X>X&X8 + + o X X X X 6 ; % V.*X>X<X<X<X1X<X>Xi.c t q w r d Z ) ) ) ) ) ) ) ) C h h 2X2X2X2X2X",
"2X2X2X2X2X2Xh h O.) ) ) ) ) / Q Q Q ! ! u a n 1.1.+X1X,X<X<X>X*X-X*X>X<X>XG.E T T T T R E % $ V.>X1X<X1X1X1X1X>Xp.x Q N f f N ^ ) ) ) ) ) ) ) #.h h 2X2X2X2X2X2X",
"2X2X2X2X2X2Xh h A ) ) ) ) ) ) ) ) ) ) ^ u a C 1.5.j.<X1X1X1X1X>X>X>X>X<X<X,X,X=X].H.H.].J.N.C.&X>X>X1X1X1X1X1X1Xj.x ^ ) / / ( ) ) ) ) ) ) ) ) | h h 2X2X2X2X2X2X",
"2X2X2X2X2X2X2Xh j #.) ) ) ) ) ) ) ) ) ^ y p V ,.5.5.U.1X1X1X1X1X1X>X>X1X,X<X<X>X>X,X;X,X>X*X*X*X1X<X1X1X1X1X1X1Xj.x / ) ) ) ) ) ) ) ) ) ) ) $.j h h 2X2X2X2X2X2X",
"2X2X2X2X2X2X2Xh h ! ) ) ) ) ) ) ) ) ) ^ i y n ` 1.5.5.(.1X1X1X1X1X1X1X1X1X1X1X1X1X<X<X,X>X*X*X>X<X1X1X1X1X1X1X1Xp.V ) ) ) ) ) ) ) ) ) ) ) )  .h h 2X2X2X2X2X2X2X",
"2X2X2X2X2X2X2Xh h j O.) ) ) ) ) ) ) ) ( m 0 d n [ 4.5.5.(.1X1X1X1X1X1X1X1X1X1X1X1X<X1X1X>X>X<X1X1X1X1X1X1X1X1X<Xi.~ ) ) ) ) ) ) ) ) ) ) ) $.j h h 2X2X2X2X2X2X2X",
"2X2X2X2X2X2X2X2Xh h A +.) ) ) ) ) ) ) ) ! i 0 c C ,.4.5.6.I.1X1X1X1X1X1X1X1X1X1X1X1X1X1X1X1X1X1X1X1X1X1X1X1X<X,Xf.( ) ) ) ) ) ) ) ) ) ) ) | h h 2X2X2X2X2X2X2X2X",
"2X2X2X2X2X2X2X2X2Xh h ..) ) ) ) ) ) ) ) ( Q t w n H 1.5.6.4.f.OX1X1X1X1X1X1X1X1X1X1X1X1X1X1X1X1X1X1X1X1X1X<X,X=Xg.) ) ) ) ) ) ) ) ) ) ) O.h h h 2X2X2X2X2X2X2X2X",
"2X2X2X2X2X2X2X2X2Xh h l +.) ) ) ) ) ) ) ) / f 0 u n ` 6.6.5.5.5.z..X1X1X1X1X1X1X1X1X1X1X1X1X1X1X1X1X1X1X1X<X|.D.%.) ) ) ) ) ) ) ) ) ) $.b h h 2X2X2X2X2X2X2X2X2X",
"2X2X2X2X2X2X2X2X2X2Xh h A +.) ) ) ) ) ) ) ) ^ s 0 z n { 5.5.5.5.5.5.r.Y.{.>X1X1X1X1X1X1X1X1X1X1X1X;X.X!.d.F A ) ) ) ) ) ) ) ) ) ) ) +.A h h 2X2X2X2X2X2X2X2X2X2X",
"2X2X2X2X2X2X2X2X2X2X2Xh h | +.) ) ) ) ) ) ) ( Q y q x C { 6.5.5.5.5.5.5.5.7.=.a.a.D.z.z.z.c.j.t.5.5.4.` b n / +.) ) ) ) ) ) ) ) ) ) X.h h h 2X2X2X2X2X2X2X2X2X2X",
"2X2X2X2X2X2X2X2X2X2X2Xh h h ..) ) ) ) ) ) ) ) ( B w r n H 1.5.5.5.5.5.6.5.6.} e.5.5.5.5.5.5.5.5.4.4.{ V V / ) ) ) ) ) ) ) ) ) ) ) O.h h h 2X2X2X2X2X2X2X2X2X2X2X",
"2X2X2X2X2X2X2X2X2X2X2X2Xh h h O.) ) ) ) ) ) ) ) ^ d 0 a C ` 4.5.5.5.5.5.5.6.6.6.5.5.5.5.5.5.5.5.4.1.C x ~ ) ) ) ) ) ) ) ) ) ) ) O.j h h 2X2X2X2X2X2X2X2X2X2X2X2X",
"2X2X2X2X2X2X2X2X2X2X2X2X2Xh h j O.+.) ) ) ) ) ) ) ! u 0 z C { 4.2.6.6.2.4.4.6.1.1.6.4.4.6.1.4.6.1.H V n ( ) ) ) ) ) ) ) ) ) +.O.j h h 2X2X2X2X2X2X2X2X2X2X2X2X2X",
"2X2X2X2X2X2X2X2X2X2X2X2X2X2Xh h h o.) ) ) ) ) ) ) ( N w e n C K ` ` K K ` K ` ` ` ` ` ` ` ` K K H n n ^ ) ) ) ) ) ) ) ) ) ) O.h h h 2X2X2X2X2X2X2X2X2X2X2X2X2X2X",
"2X2X2X2X2X2X2X2X2X2X2X2X2X2X2Xh h h | +.) ) ) ) ) ) ^ f q u v n n x x x x x n x n n x n n n x n v x ! ) ) ) ) ) ) ) ) ) +...h h h 2X2X2X2X2X2X2X2X2X2X2X2X2X2X2X",
"2X2X2X2X2X2X2X2X2X2X2X2X2X2X2X2Xh h h A #.) ) ) ) ) ) ^ s e y r e y y r y r y r r y r y r y y y s Q ( ) ) ) ) ) ) ) ) #.A h h h 2X2X2X2X2X2X2X2X2X2X2X2X2X2X2X2X",
"2X2X2X2X2X2X2X2X2X2X2X2X2X2X2X2X2Xh h h l ..+.) ) ) ) ) ^ N N N N N N N N N N Z N N N N N N N Q ! ) ) ) ) ) ) ) ) +.O.l h h h 2X2X2X2X2X2X2X2X2X2X2X2X2X2X2X2X2X",
"2X2X2X2X2X2X2X2X2X2X2X2X2X2X2X2X2X2Xh h h h A #.) ) ) ) ) ) ) ) ( ) ) ) ) ) ) ) ) ( ( ) ) ( ( ) ) ) ) ) ) ) ) ) #.A h h h h 2X2X2X2X2X2X2X2X2X2X2X2X2X2X2X2X2X2X",
"2X2X2X2X2X2X2X2X2X2X2X2X2X2X2X2X2X2X2X2Xh h h h _ O.+.) ) ) ) ) ) ) ) ) ) ) ) ) ) ) ) ) ) ) ) ) ) ) ) ) ) ) $.| h h h h 2X2X2X2X2X2X2X2X2X2X2X2X2X2X2X2X2X2X2X2X",
"2X2X2X2X2X2X2X2X2X2X2X2X2X2X2X2X2X2X2X2X2X2Xh h h h A O.@.) ) ) ) ) ) ) ) ) ) ) ) ) ) ) ) ) ) ) ) ) ) @.O.A j h h h h 2X2X2X2X2X2X2X2X2X2X2X2X2X2X2X2X2X2X2X2X2X",
"2X2X2X2X2X2X2X2X2X2X2X2X2X2X2X2X2X2X2X2X2X2X2Xh h h h h b | O.@.) ) ) ) ) ) ) ) ) ) ) ) ) ) ) ) $.O.| l h h h h h 2X2X2X2X2X2X2X2X2X2X2X2X2X2X2X2X2X2X2X2X2X2X2X",
"2X2X2X2X2X2X2X2X2X2X2X2X2X2X2X2X2X2X2X2X2X2X2X2X2Xh h h h h h j A | ..#.$.%.$.@.@.%.$.#.O...| C j h h h h h h 2X2X2X2X2X2X2X2X2X2X2X2X2X2X2X2X2X2X2X2X2X2X2X2X2X",
"2X2X2X2X2X2X2X2X2X2X2X2X2X2X2X2X2X2X2X2X2X2X2X2X2X2X2X2Xh h h h h h h h h h j l l h h h h h h h h h h h 2X2X2X2X2X2X2X2X2X2X2X2X2X2X2X2X2X2X2X2X2X2X2X2X2X2X2X2X",
"2X2X2X2X2X2X2X2X2X2X2X2X2X2X2X2X2X2X2X2X2X2X2X2X2X2X2X2X2X2X2Xh h h h h h h h h h h h h h h h h h 2X2X2X2X2X2X2X2X2X2X2X2X2X2X2X2X2X2X2X2X2X2X2X2X2X2X2X2X2X2X2X",
"2X2X2X2X2X2X2X2X2X2X2X2X2X2X2X2X2X2X2X2X2X2X2X2X2X2X2X2X2X2X2X2X2X2X2X2X2X2Xh h h h 2X2X2X2X2X2X2X2X2X2X2X2X2X2X2X2X2X2X2X2X2X2X2X2X2X2X2X2X2X2X2X2X2X2X2X2X2X2X",
"2X2X2X2X2X2X2X2X2X2X2X2X2X2X2X2X2X2X2X2X2X2X2X2X2X2X2X2X2X2X2X2X2X2X2X2X2X2X2X2X2X2X2X2X2X2X2X2X2X2X2X2X2X2X2X2X2X2X2X2X2X2X2X2X2X2X2X2X2X2X2X2X2X2X2X2X2X2X2X2X",
"2X2X2X2X2X2X2X2X2X2X2X2X2X2X2X2X2X2X2X2X2X2X2X2X2X2X2X2X2X2X2X2X2X2X2X2X2X2X2X2X2X2X2X2X2X2X2X2X2X2X2X2X2X2X2X2X2X2X2X2X2X2X2X2X2X2X2X2X2X2X2X2X2X2X2X2X2X2X2X2X",
"2X2X2X2X2X2X2X2X2X2X2X2X2X2X2X2X2X2X2X2X2X2X2X2X2X2X2X2X2X2X2X2X2X2X2X2X2X2X2X2X2X2X2X2X2X2X2X2X2X2X2X2X2X2X2X2X2X2X2X2X2X2X2X2X2X2X2X2X2X2X2X2X2X2X2X2X2X2X2X2X"
};
