/* XPM */
static char *result[] = {
/* columns rows colors chars-per-pixel */
"32 32 144 2 ",
"   c #161510",
".  c #1B1A15",
"X  c #3E2821",
"o  c #38342A",
"O  c #433F35",
"+  c #4F4534",
"@  c #524D3E",
"#  c #665E4F",
"$  c #775D4A",
"%  c #645F55",
"&  c #66604E",
"*  c #75664E",
"=  c #6E6754",
"-  c #A76214",
";  c #AD6515",
":  c #B36615",
">  c #B56815",
",  c #BE6C17",
"<  c #BB6918",
"1  c #BF7417",
"2  c #82633D",
"3  c #CD6102",
"4  c #D06708",
"5  c #D36C0C",
"6  c #D6700F",
"7  c #C46F17",
"8  c #C66E19",
"9  c #C4741A",
"0  c #CA731C",
"q  c #DE7B15",
"w  c #D2771A",
"e  c #D37C1B",
"r  c #DA7E19",
"t  c #E17E17",
"y  c #C77422",
"u  c #CB7521",
"i  c #CD7824",
"p  c #CE7D2C",
"a  c #D17A23",
"s  c #D47F2B",
"d  c #A27844",
"f  c #D4801A",
"g  c #DC831B",
"h  c #E48319",
"j  c #E8871B",
"k  c #E5891B",
"l  c #EA8B1D",
"z  c #EF901D",
"x  c #F5941D",
"c  c #DB8221",
"v  c #CD873C",
"b  c #D38534",
"n  c #D58C3C",
"m  c #D98D3C",
"M  c #EF9020",
"N  c #F29320",
"B  c #BD8F58",
"V  c #96886B",
"C  c #98886B",
"Z  c #AB9775",
"A  c #AC9976",
"S  c #B29771",
"D  c #CF8B42",
"F  c #D68E41",
"G  c #DC8F40",
"H  c #D99244",
"J  c #D4954C",
"K  c #DA9649",
"L  c #DC994B",
"P  c #D79B55",
"I  c #DB9D56",
"U  c #D09A59",
"Y  c #DA9E59",
"T  c #E09F57",
"R  c #DFA25D",
"E  c #E0A45E",
"W  c #DFA361",
"Q  c #DCAF79",
"!  c #DEB07A",
"~  c #E3A761",
"^  c #E6AA64",
"/  c #E8AC66",
"(  c #EBAF69",
")  c #EDB16B",
"_  c #EFB571",
"`  c #E6B47B",
"'  c #EAB77C",
"]  c #EDB97D",
"[  c #F2B771",
"{  c #F5B974",
"}  c #F9BD77",
"|  c #F2BD7D",
" . c #FABE78",
".. c #8F8C84",
"X. c #9C9C9B",
"o. c #ADACAB",
"O. c #B5B5B3",
"+. c #E0B480",
"@. c #E3B68B",
"#. c #E4B98C",
"$. c #ECBF8B",
"%. c #F1BD81",
"&. c #E9BD93",
"*. c #DFC29E",
"=. c #EEC28C",
"-. c #F6C184",
";. c #FAC383",
":. c #F7C78F",
">. c #FBC88D",
",. c #E6C096",
"<. c #EBC293",
"1. c #E6C49A",
"2. c #EBC598",
"3. c #ECCA9C",
"4. c #FACB94",
"5. c #F4CC9C",
"6. c #DCC5A9",
"7. c #EECCA4",
"8. c #E9CBA8",
"9. c #F2CEA3",
"0. c #EFD1AE",
"q. c #F8D0A1",
"w. c #F1D0AC",
"e. c #F7C5BB",
"r. c #FDC5BC",
"t. c #F0D4B4",
"y. c #F6D8B5",
"u. c #FDDFBD",
"i. c #F3DFC7",
"p. c #F3E1CA",
"a. c #F8E4CC",
"s. c #E2E0DC",
"d. c #F5E4D2",
"f. c #FAE8D3",
"g. c #FCE2DD",
"h. c #EBEBEA",
"j. c #F9EEE1",
"k. c #F2F1EF",
"l. c #FDF5EB",
"z. c #F4F3F2",
"x. c #FAF7F1",
"c. c #FDF9F4",
"v. c #FEFDFD",
"b. c None",
/* pixels */
"b.b.b.b.b.b.b.b.b.b.b.b.b.b.b.b.b.b.b.b.b.b.b.b.b.b.b.b.b.b.b.b.",
"b.b.b.b.b.b.b.b.b.b.b.b.b.b.3 3 3 3 b.b.b.b.b.b.b.b.b.b.b.b.b.b.",
"b.b.b.b.b.b.b.b.b.b.3 3 6 q h j j h q 6 3 3 b.b.b.b.b.b.b.b.b.b.",
"b.b.b.b.b.b.b.b.3 4 t N x x x x x x x x N h 4 3 b.b.b.b.b.b.b.b.",
"b.b.b.b.b.b.b.3 q N x x x x x x x x N x x x N t 3 b.b.b.b.b.b.b.",
"b.b.b.b.b.b.3 j x x j k e a s e e b w r j l x x j 4 b.b.b.b.b.b.",
"b.b.b.b.b.3 M x g w G m I }  .{ }  .{ K G m w h x N 4 b.b.b.b.b.",
"b.b.b.b.3 k x 0 b ~ ) E } }  .;.>.4.>.[ / ( E s l x l 3 b.b.b.b.",
"b.b.b.3 q x g y R ~ ( P ;.u.l.c.c.c.c.c.d.9.~ I w x x t 3 b.b.b.",
"b.b.b.4 x l 9 K E [ P $.l.c.c.c.c.c.c.c.c.x.%.W n h x x 4 b.b.b.",
"b.b.3 h x e b E ( ~ Q l.c.c.c.c.c.l.c.x.c.d.( / E u x x t 3 b.b.",
"b.b.3 l g 9 I E ( W j.x.k.x.a.:.{ R d % 6.@.^ / E J 0 l N 3 b.b.",
"b.b.5 k , J E R ( 9.x.l.z.p.) { { ^ B 2 U P ^ ^ ~ Y F r x 6 b.b.",
"b.b.q f y P E R / f.c.c.c.' { { { [ ^ E ^ I / ~ E E P e x t b.b.",
"b.3 h 9 b E ` <.2.c.c.v.l.5.5.5.| { ) E / I / E E E R w x j 3 b.",
"b.3 h 9 > I w.l.l.v.v.v.v.c.z.O.+ S { =.$.+.] E E E K r x j 3 b.",
"b.3 k l - b 0.x.x.v.v.v.v.c.h.o.  + =.c.c.x.y.R Y R i l x j 3 b.",
"b.3 h x 9 > ,.j.j.v.v.v.c.l.s.X.  = 3.c.c.x.0.~ R v r x x h 3 b.",
"b.b.q x l - p W K d.x.c.x.7.V o @ Z 3.x.c.x.@.E R 0 x x x t b.b.",
"b.b.6 x x 9 9 H 8 1.x.c.z.p.V & = A 1.z.c.l.@.i J 8 x x x 6 b.b.",
"b.b.3 N x g ; , : Y x.c.z.z...X X $ & z.v.c.@.; : r x x N 3 b.b.",
"b.b.3 q x x z z : n t.v.v.z.c.g.r.e.o.z.v.v.&.k l x x x h 3 b.b.",
"b.b.b.3 x x x x ; a P p.v.v.v.v.v.c.z.v.v.v.&.z x x x x 4 b.b.b.",
"b.b.b.3 q x x x g ; b L 2.l.v.v.v.v.v.v.v.x.[ x x x x t 3 b.b.b.",
"b.b.b.b.3 l N x x 1 < H K L ! *.8.7.7.<.W c x x x x l 3 b.b.b.b.",
"b.b.b.b.b.3 l x x z ; 0 K K K K K K K F w x x x x l 3 b.b.b.b.b.",
"b.b.b.b.b.b.4 j x x h - 9 0 0 9 0 0 0 0 k x x x j 4 b.b.b.b.b.b.",
"b.b.b.b.b.b.b.3 q N x g f f e f f f e k x x N q 3 b.b.b.b.b.b.b.",
"b.b.b.b.b.b.b.b.3 4 t x x x x x x x x x N t 4 3 b.b.b.b.b.b.b.b.",
"b.b.b.b.b.b.b.b.b.b.3 3 5 q h h h g q 5 3 3 b.b.b.b.b.b.b.b.b.b.",
"b.b.b.b.b.b.b.b.b.b.b.b.b.b.3 3 3 3 b.b.b.b.b.b.b.b.b.b.b.b.b.b.",
"b.b.b.b.b.b.b.b.b.b.b.b.b.b.b.b.b.b.b.b.b.b.b.b.b.b.b.b.b.b.b.b."
};
